<svg xmlns="http://www.w3.org/2000/svg" viewBox="0 0 1024 150" preserveAspectRatio="xMidYMid slice">
  <defs>
    <linearGradient id="skyGradient" x1="0%" y1="0%" x2="0%" y2="100%">
      <stop offset="0%" style="stop-color:#E0F2FE;stop-opacity:1" />
      <stop offset="100%" style="stop-color:#BAE6FD;stop-opacity:1" />
    </linearGradient>
    <linearGradient id="buildingGradient" x1="0%" y1="0%" x2="0%" y2="100%">
      <stop offset="0%" style="stop-color:#7DD3FC;stop-opacity:0.8" />
      <stop offset="100%" style="stop-color:#38BDF8;stop-opacity:0.6" />
    </linearGradient>
  </defs>
  
  <!-- Sky Background -->
  <rect width="1024" height="150" fill="url(#skyGradient)"/>
  
  <!-- Cityscape Buildings -->
  <g opacity="0.9">
    <!-- Building 1 -->
    <rect x="10" y="60" width="25" height="90" fill="url(#buildingGradient)" stroke="#0EA5E9" stroke-width="0.5"/>
    <rect x="12" y="65" width="3" height="4" fill="#E0F2FE" opacity="0.6"/>
    <rect x="17" y="65" width="3" height="4" fill="#E0F2FE" opacity="0.6"/>
    <rect x="22" y="65" width="3" height="4" fill="#E0F2FE" opacity="0.6"/>
    <rect x="27" y="65" width="3" height="4" fill="#E0F2FE" opacity="0.6"/>
    
    <!-- Building 2 -->
    <rect x="40" y="45" width="30" height="105" fill="url(#buildingGradient)" stroke="#0EA5E9" stroke-width="0.5"/>
    <rect x="43" y="50" width="4" height="5" fill="#E0F2FE" opacity="0.6"/>
    <rect x="49" y="50" width="4" height="5" fill="#E0F2FE" opacity="0.6"/>
    <rect x="55" y="50" width="4" height="5" fill="#E0F2FE" opacity="0.6"/>
    <rect x="61" y="50" width="4" height="5" fill="#E0F2FE" opacity="0.6"/>
    
    <!-- Building 3 -->
    <rect x="75" y="70" width="20" height="80" fill="url(#buildingGradient)" stroke="#0EA5E9" stroke-width="0.5"/>
    <rect x="78" y="75" width="3" height="4" fill="#E0F2FE" opacity="0.6"/>
    <rect x="83" y="75" width="3" height="4" fill="#E0F2FE" opacity="0.6"/>
    <rect x="88" y="75" width="3" height="4" fill="#E0F2FE" opacity="0.6"/>
    
    <!-- Building 4 -->
    <rect x="100" y="50" width="35" height="100" fill="url(#buildingGradient)" stroke="#0EA5E9" stroke-width="0.5"/>
    <rect x="103" y="55" width="4" height="5" fill="#E0F2FE" opacity="0.6"/>
    <rect x="109" y="55" width="4" height="5" fill="#E0F2FE" opacity="0.6"/>
    <rect x="115" y="55" width="4" height="5" fill="#E0F2FE" opacity="0.6"/>
    <rect x="121" y="55" width="4" height="5" fill="#E0F2FE" opacity="0.6"/>
    <rect x="127" y="55" width="4" height="5" fill="#E0F2FE" opacity="0.6"/>
    
    <!-- Building 5 -->
    <rect x="140" y="65" width="25" height="85" fill="url(#buildingGradient)" stroke="#0EA5E9" stroke-width="0.5"/>
    <rect x="143" y="70" width="3" height="4" fill="#E0F2FE" opacity="0.6"/>
    <rect x="148" y="70" width="3" height="4" fill="#E0F2FE" opacity="0.6"/>
    <rect x="153" y="70" width="3" height="4" fill="#E0F2FE" opacity="0.6"/>
    <rect x="158" y="70" width="3" height="4" fill="#E0F2FE" opacity="0.6"/>
    
    <!-- Building 6 -->
    <rect x="170" y="40" width="40" height="110" fill="url(#buildingGradient)" stroke="#0EA5E9" stroke-width="0.5"/>
    <rect x="173" y="45" width="5" height="6" fill="#E0F2FE" opacity="0.6"/>
    <rect x="180" y="45" width="5" height="6" fill="#E0F2FE" opacity="0.6"/>
    <rect x="187" y="45" width="5" height="6" fill="#E0F2FE" opacity="0.6"/>
    <rect x="194" y="45" width="5" height="6" fill="#E0F2FE" opacity="0.6"/>
    <rect x="201" y="45" width="5" height="6" fill="#E0F2FE" opacity="0.6"/>
    
    <!-- Building 7 -->
    <rect x="215" y="75" width="22" height="75" fill="url(#buildingGradient)" stroke="#0EA5E9" stroke-width="0.5"/>
    <rect x="218" y="80" width="3" height="4" fill="#E0F2FE" opacity="0.6"/>
    <rect x="223" y="80" width="3" height="4" fill="#E0F2FE" opacity="0.6"/>
    <rect x="228" y="80" width="3" height="4" fill="#E0F2FE" opacity="0.6"/>
    
    <!-- Building 8 -->
    <rect x="242" y="55" width="32" height="95" fill="url(#buildingGradient)" stroke="#0EA5E9" stroke-width="0.5"/>
    <rect x="245" y="60" width="4" height="5" fill="#E0F2FE" opacity="0.6"/>
    <rect x="251" y="60" width="4" height="5" fill="#E0F2FE" opacity="0.6"/>
    <rect x="257" y="60" width="4" height="5" fill="#E0F2FE" opacity="0.6"/>
    <rect x="263" y="60" width="4" height="5" fill="#E0F2FE" opacity="0.6"/>
    <rect x="269" y="60" width="4" height="5" fill="#E0F2FE" opacity="0.6"/>
    
    <!-- Building 9 -->
    <rect x="279" y="68" width="28" height="82" fill="url(#buildingGradient)" stroke="#0EA5E9" stroke-width="0.5"/>
    <rect x="282" y="73" width="4" height="4" fill="#E0F2FE" opacity="0.6"/>
    <rect x="288" y="73" width="4" height="4" fill="#E0F2FE" opacity="0.6"/>
    <rect x="294" y="73" width="4" height="4" fill="#E0F2FE" opacity="0.6"/>
    <rect x="300" y="73" width="4" height="4" fill="#E0F2FE" opacity="0.6"/>
    
    <!-- Building 10 -->
    <rect x="312" y="48" width="38" height="102" fill="url(#buildingGradient)" stroke="#0EA5E9" stroke-width="0.5"/>
    <rect x="315" y="53" width="5" height="6" fill="#E0F2FE" opacity="0.6"/>
    <rect x="322" y="53" width="5" height="6" fill="#E0F2FE" opacity="0.6"/>
    <rect x="329" y="53" width="5" height="6" fill="#E0F2FE" opacity="0.6"/>
    <rect x="336" y="53" width="5" height="6" fill="#E0F2FE" opacity="0.6"/>
    <rect x="343" y="53" width="5" height="6" fill="#E0F2FE" opacity="0.6"/>
    
    <!-- Continue pattern for more buildings... -->
    <!-- Building 11-20 (mirrored pattern) -->
    <rect x="355" y="72" width="24" height="78" fill="url(#buildingGradient)" stroke="#0EA5E9" stroke-width="0.5"/>
    <rect x="384" y="58" width="30" height="92" fill="url(#buildingGradient)" stroke="#0EA5E9" stroke-width="0.5"/>
    <rect x="419" y="43" width="36" height="107" fill="url(#buildingGradient)" stroke="#0EA5E9" stroke-width="0.5"/>
    <rect x="460" y="65" width="26" height="85" fill="url(#buildingGradient)" stroke="#0EA5E9" stroke-width="0.5"/>
    <rect x="491" y="52" width="33" height="98" fill="url(#buildingGradient)" stroke="#0EA5E9" stroke-width="0.5"/>
    <rect x="529" y="70" width="23" height="80" fill="url(#buildingGradient)" stroke="#0EA5E9" stroke-width="0.5"/>
    <rect x="557" y="45" width="35" height="105" fill="url(#buildingGradient)" stroke="#0EA5E9" stroke-width="0.5"/>
    <rect x="597" y="62" width="27" height="88" fill="url(#buildingGradient)" stroke="#0EA5E9" stroke-width="0.5"/>
    <rect x="629" y="50" width="32" height="100" fill="url(#buildingGradient)" stroke="#0EA5E9" stroke-width="0.5"/>
    <rect x="666" y="68" width="25" height="82" fill="url(#buildingGradient)" stroke="#0EA5E9" stroke-width="0.5"/>
    
    <!-- Building 21-30 -->
    <rect x="696" y="55" width="31" height="95" fill="url(#buildingGradient)" stroke="#0EA5E9" stroke-width="0.5"/>
    <rect x="732" y="42" width="37" height="108" fill="url(#buildingGradient)" stroke="#0EA5E9" stroke-width="0.5"/>
    <rect x="774" y="67" width="26" height="83" fill="url(#buildingGradient)" stroke="#0EA5E9" stroke-width="0.5"/>
    <rect x="805" y="53" width="34" height="97" fill="url(#buildingGradient)" stroke="#0EA5E9" stroke-width="0.5"/>
    <rect x="844" y="70" width="24" height="80" fill="url(#buildingGradient)" stroke="#0EA5E9" stroke-width="0.5"/>
    <rect x="873" y="48" width="36" height="102" fill="url(#buildingGradient)" stroke="#0EA5E9" stroke-width="0.5"/>
    <rect x="914" y="63" width="28" height="87" fill="url(#buildingGradient)" stroke="#0EA5E9" stroke-width="0.5"/>
    <rect x="947" y="51" width="33" height="99" fill="url(#buildingGradient)" stroke="#0EA5E9" stroke-width="0.5"/>
    <rect x="985" y="69" width="25" height="81" fill="url(#buildingGradient)" stroke="#0EA5E9" stroke-width="0.5"/>
  </g>
</svg>
